<svg width="30" height="30" viewBox="0 0 30 30" fill="none" xmlns="http://www.w3.org/2000/svg">
<g clip-path="url(#clip0_13_445)">
<path fill-rule="evenodd" clip-rule="evenodd" d="M12.0011 17.5033C14.7754 12.4464 18.7721 8.78638 24.1843 6.68591C18.6897 11.1756 14.8068 16.7918 12.174 23.3142C12.1502 23.2741 12.1158 23.2176 12.0828 23.1602C11.0267 21.3256 9.83783 19.5835 8.45818 17.9755C7.81793 17.2293 7.1366 16.5232 6.37254 15.9008C6.35162 15.8838 6.33193 15.8653 6.31143 15.8476C5.84086 15.4437 5.64264 15.0655 5.9959 14.3093C6.33416 13.5851 6.9252 13.1302 7.68504 12.897C7.96108 12.8122 8.22111 12.8905 8.43404 13.0642C8.70176 13.2827 8.95565 13.5208 9.19729 13.7681C10.2569 14.8528 11.1595 16.0572 11.9178 17.3701C11.9421 17.412 11.9692 17.4525 12.0011 17.5033Z" fill="#DBAC37"/>
</g>
<defs>
<clipPath id="clip0_13_445">
<rect width="30" height="30" fill="white"/>
</clipPath>
</defs>
</svg>
